<?xml version="1.0" standalone="no"?>
<!DOCTYPE svg PUBLIC "-//W3C//DTD SVG 20010904//EN"
 "http://www.w3.org/TR/2001/REC-SVG-20010904/DTD/svg10.dtd">
<svg version="1.0" xmlns="http://www.w3.org/2000/svg"
 width="626.000000pt" height="418.000000pt" viewBox="0 0 626.000000 418.000000"
 preserveAspectRatio="xMidYMid meet">

<g transform="translate(0.000000,418.000000) scale(0.100000,-0.100000)"
fill="#000000" stroke="none">
<path d="M1170 4086 c0 -109 6 -116 72 -86 53 24 76 25 128 4 60 -24 70 -11
70 92 l0 84 -135 0 -135 0 0 -94z"/>
<path d="M2070 4093 c-36 -48 -78 -104 -94 -126 -25 -33 -26 -38 -10 -33 23 7
49 -8 40 -23 -4 -6 -2 -11 4 -11 7 0 10 -7 6 -15 -3 -8 4 -30 14 -48 l20 -34
-77 -109 c-42 -60 -109 -156 -148 -214 -40 -58 -96 -139 -126 -181 -30 -41
-88 -124 -129 -183 -102 -147 -103 -147 -119 -137 -10 7 -5 20 26 62 21 30 97
140 168 244 71 105 181 264 245 355 64 91 120 171 124 178 4 8 0 24 -10 40
-10 15 -17 34 -16 42 3 13 2 13 -7 0 -9 -13 -12 -12 -26 5 -16 19 -16 19 -5
-3 6 -13 18 -26 26 -29 8 -3 14 -10 14 -15 0 -5 -15 0 -34 12 l-34 21 -45 -63
c-24 -35 -102 -146 -173 -247 -71 -100 -173 -244 -227 -318 -53 -74 -94 -139
-91 -145 4 -6 2 -8 -3 -5 -13 8 -59 -61 -58 -87 0 -11 7 -22 15 -24 13 -5 13
-3 1 11 -7 10 -10 17 -5 17 14 0 70 -49 57 -50 -6 0 -15 5 -18 10 -10 17 -25
11 -25 -10 0 -11 -4 -20 -8 -20 -12 0 -39 23 -43 37 -2 6 -53 -61 -114 -149
-60 -88 -115 -162 -121 -165 -11 -4 -93 51 -827 558 -246 170 -237 164 -237
148 0 -8 15 -24 33 -36 17 -12 169 -116 337 -230 515 -352 522 -357 516 -364
-2 -2 25 -23 61 -47 35 -23 62 -38 58 -32 -3 5 34 -16 82 -48 116 -76 112 -75
140 -78 16 -2 29 6 40 24 53 84 269 407 309 462 26 36 46 66 45 68 -4 6 127
191 132 187 4 -3 5 -2 3 1 -7 8 120 196 214 319 42 55 121 165 175 245 54 80
108 156 120 170 37 42 85 118 85 134 0 14 -17 16 -108 16 l-108 0 -64 -87z
m-105 -273 c-10 -11 -16 -23 -13 -26 4 -3 14 8 24 25 10 16 21 28 25 25 11 -6
-250 -374 -263 -371 -6 1 -13 -4 -16 -12 -3 -9 0 -11 8 -6 9 5 11 4 6 -4 -4
-6 -11 -9 -15 -6 -5 2 -20 -13 -35 -35 -14 -22 -29 -40 -32 -40 -3 0 9 20 26
44 16 25 30 47 30 51 0 18 260 388 268 381 3 -3 -3 -15 -13 -26z m-75 -25 c-7
-8 -17 -15 -23 -15 -6 0 -2 7 9 15 25 19 30 19 14 0z m-280 -495 c-22 -33 -43
-60 -46 -60 -2 0 14 27 36 60 22 33 43 60 46 60 2 0 -14 -27 -36 -60z m-100
-145 c-17 -25 -33 -45 -36 -45 -3 0 9 20 26 45 17 25 33 45 36 45 3 0 -9 -20
-26 -45z m-80 -9 c0 -8 -4 -18 -10 -21 -5 -3 -10 3 -10 14 0 12 5 21 10 21 6
0 10 -6 10 -14z m-20 -126 c0 -5 -4 -10 -10 -10 -5 0 -10 5 -10 10 0 6 5 10
10 10 6 0 10 -4 10 -10z"/>
<path d="M1846 3649 c-88 -128 -127 -192 -99 -164 17 17 203 298 200 301 -2 2
-47 -60 -101 -137z"/>
<path d="M2488 4173 c6 -2 18 -2 25 0 6 3 1 5 -13 5 -14 0 -19 -2 -12 -5z"/>
<path d="M3100 4176 c0 -8 48 -12 66 -5 13 5 7 8 -23 8 -24 1 -43 -1 -43 -3z"/>
<path d="M3203 4161 c5 -19 -6 -27 -35 -22 -4 0 1 -13 10 -29 16 -28 16 -32 0
-60 -9 -16 -13 -30 -8 -30 4 0 10 6 13 13 2 6 7 9 11 6 4 -4 -5 -20 -19 -35
l-27 -29 24 -6 c44 -13 48 -11 42 21 l-6 30 44 -20 c47 -20 166 -31 170 -15 2
6 -20 11 -49 11 -65 2 -124 13 -140 26 -18 15 -16 58 4 80 9 10 12 18 7 18 -6
0 -10 11 -10 24 0 14 4 22 8 20 12 -7 45 -15 118 -27 36 -6 68 -15 72 -21 5
-8 8 -7 8 1 0 6 8 13 18 16 9 2 -5 7 -33 11 -27 4 -75 12 -105 17 -128 24
-124 24 -117 0z"/>
<path d="M2568 4163 c7 -3 16 -2 19 1 4 3 -2 6 -13 5 -11 0 -14 -3 -6 -6z"/>
<path d="M3058 4153 c7 -3 16 -2 19 1 4 3 -2 6 -13 5 -11 0 -14 -3 -6 -6z"/>
<path d="M3103 4143 c9 -2 23 -2 30 0 6 3 -1 5 -18 5 -16 0 -22 -2 -12 -5z"/>
<path d="M2887 4133 c-13 -13 -7 -51 11 -64 15 -13 16 -12 3 3 -7 10 -11 29
-9 43 6 27 5 29 -5 18z"/>
<path d="M3310 4119 c0 -5 26 -9 57 -9 31 0 54 2 52 4 -9 9 -109 13 -109 5z"/>
<path d="M3516 4052 c-2 -4 -1 -14 5 -22 7 -12 9 -10 9 8 0 23 -5 28 -14 14z"/>
<path d="M2970 4040 c0 -5 17 -10 38 -9 30 0 33 2 17 9 -28 12 -55 12 -55 0z"/>
<path d="M3050 4026 c0 -2 13 -6 29 -8 17 -2 28 -1 25 4 -5 8 -54 12 -54 4z"/>
<path d="M3480 4000 c0 -5 5 -10 11 -10 5 0 7 5 4 10 -3 6 -8 10 -11 10 -2 0
-4 -4 -4 -10z"/>
<path d="M1768 3942 c-14 -15 -53 -65 -88 -112 -35 -47 -79 -103 -99 -125
l-36 -40 38 35 c21 19 74 83 118 142 44 59 88 108 97 110 11 2 13 6 6 10 -6 4
-22 -5 -36 -20z"/>
<path d="M1410 3855 c-30 -7 -84 -14 -120 -15 -46 -1 -59 -4 -45 -10 48 -20
168 -8 206 21 13 10 22 18 19 17 -3 0 -30 -6 -60 -13z"/>
<path d="M2520 3825 c0 -14 -5 -35 -10 -46 -16 -29 -4 -23 20 11 19 27 20 31
6 46 -15 14 -16 13 -16 -11z"/>
<path d="M2957 3784 c-3 -4 8 -27 25 -51 44 -61 69 -79 30 -21 -18 26 -32 54
-32 62 0 16 -12 21 -23 10z"/>
<path d="M2757 3751 c-4 -17 -3 -21 5 -13 5 5 8 16 6 23 -3 8 -7 3 -11 -10z"/>
<path d="M1501 3613 c-23 -27 -41 -54 -41 -61 0 -18 -67 -149 -80 -157 -7 -4
-31 -37 -55 -74 -24 -36 -60 -88 -79 -116 -19 -27 -35 -57 -36 -65 0 -8 12 5
25 29 26 45 68 106 136 197 21 27 57 90 79 138 23 48 55 102 72 121 16 19 28
35 25 35 -3 0 -24 -21 -46 -47z"/>
<path d="M3060 3608 c0 -18 5 -28 15 -28 19 0 19 11 0 36 -14 18 -14 18 -15
-8z"/>
<path d="M694 3499 c-17 -5 -38 -16 -45 -26 -13 -15 -12 -15 9 -4 26 14 29 5
5 -22 -17 -19 -17 -19 7 -12 24 7 24 6 6 -7 -24 -19 -5 -34 23 -18 11 5 31 10
44 10 28 0 45 38 24 52 -9 6 -9 10 1 17 10 6 8 10 -10 14 -27 8 -24 8 -64 -4z"/>
<path d="M600 3339 c-29 -12 -60 -38 -60 -51 0 -5 7 -2 16 6 23 23 39 8 17
-16 -15 -17 -10 -16 38 7 55 27 56 28 38 46 -11 11 -20 19 -21 18 -2 0 -14 -5
-28 -10z"/>
<path d="M606 3265 c-20 -15 -20 -15 0 -15 10 0 28 7 38 15 20 15 20 15 0 15
-10 0 -28 -7 -38 -15z"/>
<path d="M6112 2764 c-51 -13 -110 -31 -130 -40 -20 -9 -41 -17 -47 -18 -5 -1
-53 -24 -105 -52 -52 -27 -99 -51 -105 -53 -18 -7 -120 -84 -123 -93 -2 -4 -8
-8 -14 -8 -21 0 -197 -147 -316 -264 -89 -87 -95 -91 -148 -98 -53 -7 -88 -22
-239 -101 -137 -72 -179 -141 -135 -227 24 -47 91 -98 153 -118 65 -20 227
-26 288 -12 39 10 64 24 99 59 72 70 90 165 49 261 l-21 49 63 72 c141 158
188 205 284 282 197 159 346 235 524 268 l71 13 0 53 c0 51 -1 53 -27 53 -16
-1 -70 -12 -121 -26z m-847 -654 c3 -5 1 -10 -4 -10 -6 0 -11 5 -11 10 0 6 2
10 4 10 3 0 8 -4 11 -10z m-177 -90 c17 -11 33 -28 34 -37 0 -10 3 -31 5 -48
3 -16 6 -62 7 -100 1 -39 6 -77 10 -84 12 -19 -57 -6 -99 17 -71 41 -94 158
-46 236 26 41 42 44 89 16z m215 -88 c7 -32 -1 -72 -14 -72 -10 0 -23 85 -14
99 10 17 22 5 28 -27z m-389 -62 c4 -35 3 -49 -3 -40 -9 15 -14 49 -12 84 2
32 8 14 15 -44z m-31 0 c4 -30 3 -38 -3 -25 -8 19 -14 83 -6 74 2 -2 6 -24 9
-49z"/>
<path d="M677 2729 c7 -7 15 -10 18 -7 3 3 -2 9 -12 12 -14 6 -15 5 -6 -5z"/>
<path d="M787 2680 c3 -11 9 -23 14 -26 29 -17 -8 -124 -75 -219 -35 -48 -35
-49 -15 -63 14 -10 19 -23 17 -45 -3 -28 1 -33 27 -42 36 -12 55 -56 37 -85
-18 -29 -15 -35 8 -15 13 12 20 31 20 54 0 33 -4 38 -32 46 -42 13 -58 52 -38
92 7 15 12 36 11 45 -1 9 8 27 19 38 12 12 31 42 41 66 13 29 28 46 44 50 13
3 22 11 20 17 -2 7 -6 25 -10 40 -5 25 -9 28 -35 22 -26 -6 -31 -3 -40 19 -11
31 -20 35 -13 6z"/>
<path d="M0 2508 c0 -18 22 -44 89 -104 49 -43 90 -84 90 -90 1 -6 28 -36 61
-67 65 -60 72 -80 39 -121 -11 -14 -17 -26 -12 -26 4 0 0 -5 -9 -11 -27 -15
-22 -30 5 -18 12 6 38 32 56 59 33 48 33 50 17 76 -22 32 -222 228 -331 323
-3 2 -5 -7 -5 -21z"/>
<path d="M969 2426 c18 -20 22 -32 17 -56 -3 -19 -2 -29 4 -25 6 3 10 24 10
46 0 24 -4 38 -10 34 -5 -3 -10 -2 -10 3 0 6 -8 13 -17 16 -13 5 -11 0 6 -18z"/>
<path d="M826 2421 l-28 -6 30 -11 c27 -10 31 -9 35 7 3 11 2 18 -1 18 -4 -1
-20 -4 -36 -8z"/>
<path d="M862 2314 c-11 -23 -10 -24 8 -14 21 11 26 25 11 34 -4 3 -13 -6 -19
-20z"/>
<path d="M1078 2250 c6 -8 12 -28 12 -45 0 -17 -6 -37 -12 -45 -7 -8 -3 -6 10
4 12 11 22 29 22 41 0 12 -10 30 -22 41 -13 10 -17 12 -10 4z"/>
<path d="M1183 1981 c9 -25 9 -36 -1 -51 -15 -25 -4 -26 14 -2 19 24 17 46 -6
67 -19 17 -19 17 -7 -14z"/>
<path d="M726 1939 c19 -38 26 -67 26 -113 0 -88 -16 -134 -68 -193 -25 -29
-43 -53 -39 -53 15 0 112 72 138 102 58 67 77 107 77 156 0 42 -4 52 -37 83
-32 29 -100 69 -119 69 -2 0 7 -23 22 -51z"/>
<path d="M408 1943 c-31 -20 -64 -74 -73 -123 -8 -45 17 -112 53 -140 28 -23
80 -26 106 -7 15 11 16 16 4 42 -7 17 -17 33 -21 36 -17 12 -14 74 5 126 11
29 17 57 13 63 -4 6 1 7 12 4 15 -5 16 -4 3 5 -22 16 -71 13 -102 -6z"/>
<path d="M5890 1909 c-57 -6 -128 -40 -144 -66 -7 -13 -10 -13 -17 -2 -8 12
-11 11 -20 -3 -5 -10 -15 -18 -21 -18 -16 0 -88 -60 -88 -74 0 -7 -10 -18 -22
-23 -40 -19 -89 -66 -109 -105 -17 -34 -18 -41 -5 -71 16 -40 64 -64 93 -48
11 5 29 8 40 5 43 -12 76 24 108 117 12 34 12 41 -1 54 -14 14 -13 20 16 65
38 60 132 148 166 156 14 4 51 4 84 2 33 -2 58 -2 55 0 -11 11 -85 17 -135 11z
m-150 -113 c0 -2 -8 -10 -17 -17 -16 -13 -17 -12 -4 4 13 16 21 21 21 13z
m-46 -20 c-3 -8 -13 -17 -22 -21 -13 -5 -13 -2 3 15 21 24 26 25 19 6z m6 -36
c-6 -11 -13 -20 -16 -20 -2 0 0 9 6 20 6 11 13 20 16 20 2 0 0 -9 -6 -20z"/>
<path d="M5865 1864 c-40 -22 -63 -43 -88 -79 -19 -28 -17 -27 19 7 29 28 43
35 54 28 8 -5 33 -10 55 -10 46 0 103 -18 137 -43 12 -9 37 -27 54 -40 66 -48
134 -111 139 -128 9 -28 25 -23 25 9 0 22 -15 39 -81 91 -45 35 -97 72 -117
82 -21 10 -32 18 -27 19 6 0 3 5 -5 10 -13 9 -13 10 0 10 18 0 76 -38 145 -94
90 -74 85 -72 85 -45 0 26 -98 110 -191 163 -63 36 -158 45 -204 20z"/>
<path d="M5358 1371 c-64 -13 -112 -52 -144 -119 -15 -30 -15 -34 0 -51 16
-18 16 -21 -8 -55 -37 -54 -49 -101 -44 -170 4 -67 43 -161 67 -161 8 0 16 -6
19 -14 3 -9 0 -11 -9 -6 -8 5 -6 -1 5 -13 10 -12 22 -20 26 -17 4 2 22 -11 40
-30 19 -19 30 -35 25 -35 -5 0 4 -13 20 -30 15 -16 32 -27 36 -24 4 2 21 -8
36 -23 16 -15 19 -20 8 -10 -12 9 -25 17 -29 17 -5 0 14 -18 43 -41 28 -22 55
-38 60 -35 5 3 15 -2 22 -12 13 -16 13 -16 -6 -2 -19 14 -19 14 -6 -3 8 -10
20 -16 27 -13 8 3 13 1 11 -3 -5 -18 134 -103 331 -202 74 -37 129 -70 123
-73 -6 -4 -11 -3 -11 2 0 11 -39 4 -57 -11 -28 -21 -3 -88 34 -93 9 -2 38 -15
65 -29 26 -14 52 -24 57 -20 6 3 21 -11 35 -32 15 -21 26 -34 26 -30 0 5 13
-1 29 -12 16 -12 39 -21 50 -21 20 0 21 5 21 109 l0 109 -125 42 c-146 49
-382 163 -510 247 -185 122 -357 283 -402 378 l-24 50 7 -40 c4 -22 11 -46 17
-53 5 -7 7 -15 4 -19 -12 -11 -50 92 -54 147 -3 40 -2 51 6 40 6 -8 11 -28 12
-45 1 -16 5 2 9 40 3 39 10 79 14 90 4 11 -2 4 -13 -15 -24 -41 -28 -23 -6 21
9 16 20 27 25 24 5 -3 12 0 16 6 4 8 3 9 -4 5 -7 -4 -12 -3 -12 1 0 11 37 43
42 37 3 -2 20 12 38 31 19 19 38 35 42 35 19 0 5 -27 -34 -70 l-43 -45 40 35
c22 19 60 45 85 58 96 48 123 97 77 140 -24 23 -45 25 -109 13z m12 -696 c13
-14 21 -25 18 -25 -2 0 -15 11 -28 25 -13 14 -21 25 -18 25 2 0 15 -11 28 -25z"/>
<path d="M4440 1008 c-28 -43 -19 -79 31 -129 13 -13 19 -33 19 -60 0 -23 8
-78 17 -124 21 -101 12 -128 -53 -167 -34 -21 -54 -27 -82 -23 l-37 4 50 -31
c86 -55 790 -466 793 -463 10 9 -40 80 -205 291 -264 338 -252 325 -198 220
25 -48 45 -90 45 -92 0 -6 -58 -34 -69 -34 -11 0 -35 49 -56 115 -21 65 -165
379 -180 390 -12 10 -48 82 -57 113 -2 7 -9 4 -18 -10z"/>
<path d="M4684 946 c-17 -13 -17 -16 -4 -30 12 -12 19 -13 38 -2 22 12 22 13
4 29 -16 15 -21 15 -38 3z"/>
<path d="M4835 950 c3 -5 8 -10 11 -10 2 0 4 5 4 10 0 6 -5 10 -11 10 -5 0 -7
-4 -4 -10z"/>
<path d="M4612 853 c69 -147 72 -153 80 -153 4 0 11 15 16 33 7 25 5 38 -10
59 -25 36 -44 47 -28 17 13 -24 13 -24 -9 -5 -24 22 -27 36 -8 36 7 0 18 5 25
12 14 14 -22 70 -42 62 -7 -3 -19 2 -26 11 -7 8 -18 15 -26 15 -9 0 0 -29 28
-87z"/>
<path d="M4743 885 c-7 -7 -22 -20 -34 -29 -24 -16 -20 -46 6 -46 9 0 31 10
50 23 33 22 34 25 19 45 -17 25 -24 27 -41 7z"/>
<path d="M4758 813 c7 -3 16 -2 19 1 4 3 -2 6 -13 5 -11 0 -14 -3 -6 -6z"/>
<path d="M5290 725 c13 -14 26 -25 28 -25 3 0 -5 11 -18 25 -13 14 -26 25 -28
25 -3 0 5 -11 18 -25z"/>
<path d="M4193 554 c3 -3 -15 -38 -40 -77 -36 -56 -268 -432 -290 -469 -2 -5
14 -8 36 -8 37 0 43 4 66 40 28 44 31 55 13 44 -7 -4 -8 -3 -4 5 4 6 12 9 17
6 5 -4 9 -1 9 4 0 22 38 9 129 -44 61 -36 104 -55 125 -54 l31 0 -22 16 c-13
8 -23 20 -23 25 0 21 84 147 101 151 10 3 17 2 15 -2 -7 -11 53 -43 66 -35 7
4 8 3 4 -4 -3 -6 2 -16 13 -21 26 -14 34 -14 25 1 -5 7 -3 8 5 4 7 -5 10 -11
7 -14 -3 -3 -1 -11 5 -19 9 -10 5 -23 -15 -53 -31 -47 -31 -50 -8 -50 11 0 27
14 38 35 19 35 55 48 69 24 4 -6 14 -8 22 -5 8 3 11 1 8 -4 -10 -17 71 -50
124 -50 40 0 52 4 61 20 6 11 8 25 5 30 -4 6 -3 10 2 9 4 -1 16 1 25 5 9 4 27
2 40 -4 21 -10 22 -10 5 4 -18 14 -18 14 0 18 15 3 13 7 -12 22 -16 11 -50 33
-75 50 -25 16 -39 23 -32 14 14 -17 1 -34 -18 -23 -5 3 -10 4 -10 2 0 -3 16
-14 35 -26 19 -11 35 -25 35 -31 0 -15 -43 -80 -53 -80 -17 0 -149 84 -154 98
-4 8 2 28 12 46 17 28 17 30 1 17 -16 -13 -16 -12 -5 13 10 21 10 29 -1 39
-10 10 -11 9 -8 -3 7 -19 -31 -90 -48 -90 -11 0 -108 54 -148 82 -18 13 -18
15 -1 47 10 21 12 30 4 25 -9 -5 -10 -2 -6 10 4 10 7 26 7 37 0 28 26 34 58
13 15 -10 38 -19 52 -20 14 -1 29 -2 33 -3 4 -1 -1 -10 -12 -22 -11 -12 -24
-18 -30 -14 -6 3 -11 4 -11 1 0 -3 15 -13 33 -21 25 -13 28 -13 14 -1 -18 14
-18 15 2 26 21 11 22 10 25 -12 0 -7 7 -13 14 -12 35 3 36 4 24 16 -22 22 -13
29 18 13 16 -8 34 -15 41 -15 6 0 29 -16 50 -35 22 -20 50 -35 63 -35 14 0 28
-5 31 -11 4 -6 13 -8 21 -5 7 3 16 1 19 -5 4 -5 23 -18 43 -28 20 -10 64 -33
97 -51 191 -104 -199 132 -569 344 -54 32 -115 68 -135 82 -31 21 -86 35 -68
18z m135 -87 c44 -32 78 -82 61 -93 -5 -3 -13 -2 -19 1 -6 3 -7 -1 -4 -10 5
-11 -8 -7 -45 14 -69 41 -111 62 -111 57 0 -3 34 -23 76 -46 41 -23 78 -48 80
-55 7 -17 -23 -74 -41 -81 -16 -7 -154 71 -161 91 -3 7 -1 22 5 33 6 12 7 22
0 29 -6 6 -2 18 13 34 13 14 24 29 24 34 2 15 45 34 63 27 9 -3 35 -19 59 -35z
m-158 -161 c0 -2 -10 -2 -22 2 -16 4 -28 -3 -45 -24 l-23 -29 12 32 c7 18 19
34 28 36 14 3 50 -9 50 -17z m14 -18 c-7 -11 33 -29 49 -22 8 3 18 1 22 -5 3
-7 0 -8 -9 -5 -28 11 -17 -5 14 -21 17 -9 30 -20 30 -26 0 -19 -82 -149 -94
-149 -6 0 -42 20 -81 44 -56 34 -69 48 -68 65 2 15 -1 20 -9 15 -7 -4 -8 -3
-4 5 4 6 11 9 16 6 5 -3 14 3 19 14 14 26 14 34 -1 25 -7 -4 -8 -3 -4 5 4 6
11 9 16 6 5 -3 16 8 25 25 13 25 21 30 49 27 19 -1 32 -5 30 -9z m619 -167
c20 -12 37 -26 37 -29 0 -4 -11 -12 -25 -19 -22 -10 -25 -9 -25 7 0 10 -11 27
-25 38 -13 11 -21 22 -18 26 8 7 6 8 56 -23z"/>
<path d="M4330 399 c0 -5 5 -7 10 -4 6 3 10 8 10 11 0 2 -4 4 -10 4 -5 0 -10
-5 -10 -11z"/>
<path d="M4099 435 c-12 -19 -25 -32 -31 -29 -6 4 -6 9 2 14 23 14 -27 31 -76
26 -39 -4 -54 -12 -97 -53 -27 -26 -57 -54 -66 -61 -9 -7 -38 -30 -64 -52 -57
-48 -78 -54 -157 -47 -50 4 -62 2 -70 -13 -7 -13 -2 -22 20 -39 37 -27 90
-117 90 -153 l0 -28 98 0 97 0 123 203 c67 111 132 217 143 235 12 17 18 32
15 32 -4 0 -16 -16 -27 -35z"/>
<path d="M5510 352 c0 -10 7 -27 15 -38 8 -10 15 -26 15 -34 0 -8 10 -38 22
-67 18 -44 24 -51 39 -42 10 5 28 9 40 9 12 0 30 7 40 15 10 10 45 18 88 22
62 5 71 8 71 26 0 13 5 17 15 13 8 -3 15 -1 15 3 0 13 -26 21 -66 21 -19 0
-60 13 -91 30 -41 22 -72 31 -111 32 -34 1 -56 6 -59 15 -8 20 -33 16 -33 -5z"/>
<path d="M6060 322 c8 -5 26 -13 40 -16 17 -5 20 -4 10 2 -8 5 -26 13 -40 16
-17 5 -20 4 -10 -2z"/>
<path d="M4411 316 c2 -2 15 -9 29 -15 24 -11 24 -11 6 3 -16 13 -49 24 -35
12z"/>
<path d="M6179 279 c30 -10 56 -17 58 -15 5 5 -86 36 -101 35 -6 0 13 -9 43
-20z"/>
<path d="M5510 253 c0 -19 44 -87 48 -75 2 6 -8 28 -22 49 -14 21 -26 32 -26
26z"/>
<path d="M4618 193 c7 -3 16 -2 19 1 4 3 -2 6 -13 5 -11 0 -14 -3 -6 -6z"/>
<path d="M4652 175 c2 -1 12 -7 24 -13 15 -8 21 -8 21 1 0 7 -11 13 -24 13
-14 1 -23 1 -21 -1z"/>
<path d="M3355 99 c-9 -17 -15 -33 -13 -35 3 -2 12 12 21 31 21 43 13 47 -8 4z"/>
<path d="M4604 108 c3 -15 26 -23 26 -8 0 6 -4 9 -9 6 -5 -4 -12 -1 -14 4 -3
6 -4 5 -3 -2z"/>
<path d="M4880 47 c0 -7 72 -48 76 -44 2 2 -14 14 -36 26 -22 12 -40 20 -40
18z"/>
<path d="M4847 29 c7 -7 15 -10 18 -7 3 3 -2 9 -12 12 -14 6 -15 5 -6 -5z"/>
</g>
</svg>
